<?xml version="1.0" encoding="utf-8"?>
<!-- Generator: Adobe Illustrator 17.1.0, SVG Export Plug-In . SVG Version: 6.00 Build 0)  -->
<!DOCTYPE svg PUBLIC "-//W3C//DTD SVG 1.1//EN" "http://www.w3.org/Graphics/SVG/1.1/DTD/svg11.dtd">
<svg version="1.1" id="Warstwa_1" xmlns="http://www.w3.org/2000/svg" xmlns:xlink="http://www.w3.org/1999/xlink" x="0px" y="0px"
	 viewBox="0 0 850.4 850.4" enable-background="new 0 0 850.4 850.4" xml:space="preserve">
<path fill="#141414" d="M425.2,14.4c-226.9,0-410.8,183.9-410.8,410.8S198.3,836,425.2,836S836,652.1,836,425.2
	S652.1,14.4,425.2,14.4z M425.2,820.2c-218.2,0-395-176.9-395-395c0-218.2,176.9-395,395-395s395,176.9,395,395
	C820.2,643.4,643.4,820.2,425.2,820.2z"/>
<g>
	<path fill="#141414" d="M523,624.8c9.1,0,16.8-3.2,23.3-9.7c6.4-6.4,9.6-14.2,9.6-23.3c0-9.1-3.2-16.8-9.6-23.3
		c-6.4-6.4-14.2-9.6-23.3-9.6c-9.1,0-16.8,3.2-23.3,9.6c-6.4,6.4-9.6,14.2-9.6,23.3c0,9.1,3.2,16.8,9.6,23.3
		C506.1,621.6,513.9,624.8,523,624.8z"/>
	<path fill="#141414" d="M457.3,667.3c-2.5-2.7-6.1-4.1-10.7-4.1h-0.1v30.3h0.1c4.7,0,8.2-1.4,10.7-4.1c2.8-3,4.2-6.7,4.2-11
		C461.5,674,460.1,670.3,457.3,667.3z"/>
	<polygon fill="#141414" points="475.8,736.2 475.8,718 465.9,736.2 	"/>
	<path fill="#141414" d="M423.1,662.6c-3.9,0-7.3,1.5-10.1,4.6c-2.8,3.1-4.2,6.7-4.2,11.1c0,4.3,1.4,8,4.2,11.1
		c2.8,3.1,6.2,4.6,10.1,4.6c4,0,7.3-1.5,10.1-4.6c2.8-3.1,4.2-6.7,4.2-11.1c0-4.3-1.4-8-4.2-11.1
		C430.5,664.2,427.1,662.6,423.1,662.6z"/>
	<path fill="#141414" d="M335.5,181.5c3.8-3.8,5.7-8.4,5.7-13.8c0-5.4-1.9-10-5.7-13.8c-3.8-3.8-8.4-5.7-13.7-5.7h-12.3v38.9h12.3
		C327.1,187.2,331.7,185.3,335.5,181.5z"/>
	<polygon fill="#141414" points="371,154.4 360,184.7 382,184.7 	"/>
	<path fill="#141414" d="M422.6,715.9c-2.5,0-4.6,0.9-6.3,2.8c-1.7,1.9-2.6,4.2-2.6,6.9V737c0,2.7,0.9,5,2.6,6.9
		c1.7,1.9,3.8,2.8,6.3,2.8c2.5,0,4.6-0.9,6.3-2.8c1.7-1.9,2.6-4.2,2.6-6.9v-11.4c0-2.7-0.9-5-2.6-6.9
		C427.2,716.9,425.1,715.9,422.6,715.9z"/>
	<path fill="#141414" d="M425.2,39C211.9,39,39,211.9,39,425.2s172.9,386.1,386.1,386.1s386.1-172.9,386.1-386.1S638.5,39,425.2,39z
		 M528.2,144.2h4.1v32.6l12.3-12.3l3.3,3.3l-15.6,15.6v29h28v4.1h-32V144.2z M479.6,144.2h36.1v4.1h-32v30h32v4.1h-32v30h32v4.1
		h-36.1V144.2z M403.1,144.2h4.1v55.1c0,3.8,1.4,7,4.1,9.6c2.7,2.7,6,4,9.7,4s6.9-1.3,9.7-3.9c1-1,1.9-2.2,2.6-3.5v-61.4h4.1v61.4
		c0.7,1.3,1.6,2.5,2.6,3.5c2.7,2.6,5.9,3.9,9.7,3.9c3.7,0,7-1.3,9.7-4c2.7-2.7,4.1-5.9,4.1-9.6v-55.1h4.1v55.5
		c-0.1,4.7-1.8,8.7-5.2,12.1c-3.5,3.5-7.7,5.2-12.6,5.2c-4.9,0-9.1-1.7-12.6-5.2c-0.6-0.6-1.2-1.2-1.7-1.9c-0.5,0.6-1,1.2-1.7,1.9
		c-3.5,3.5-7.7,5.2-12.6,5.2c-4.9,0-9.1-1.7-12.6-5.2c-3.4-3.4-5.1-7.4-5.2-12.1V144.2z M397.9,216.4h-4.3l-10.1-27.7h-25
		l-10.1,27.7h-4.3l26.9-73.9L397.9,216.4z M305.4,144.2h19c5.5,0.8,10.2,3.1,14,6.9c4.6,4.6,6.9,10.2,6.9,16.7
		c0,6.5-2.3,12.1-6.9,16.7c-4.6,4.6-10.2,6.9-16.7,6.9h-12.3v25h-4.1V144.2z M240.3,611l3.8-1.4c0.4,3.9,2.1,7.3,5,10.2
		c3.4,3.4,7.5,5.1,12.3,5.1c4.8,0,8.9-1.7,12.3-5.1c3.4-3.4,5.1-7.5,5.1-12.3c0-4.8-1.7-8.9-5.1-12.3c-3-3-6.6-5.4-11-7.1
		c-5.1-1.7-9.2-4.1-12.2-7c-3-3-4.5-6.6-4.5-10.8c0-4.2,1.5-7.7,4.5-10.7c3-3,6.6-4.5,10.8-4.5c4.2,0,7.8,1.5,10.8,4.5
		c1.7,1.6,2.8,3.4,3.4,5.4l-3.7,1.4c-0.5-1.5-1.4-2.8-2.7-4.1c-2.2-2.2-4.8-3.2-7.9-3.2s-5.7,1.1-7.9,3.3c-2.2,2.2-3.3,4.8-3.3,8
		c0,3.1,1.1,5.7,3.3,7.9c2,2,4.9,3.9,8.5,5.6c5.8,1.9,10.6,4.8,14.6,8.7c4.2,4.2,6.3,9.2,6.3,15.1c0,5.9-2.1,11-6.3,15.2
		c-4.2,4.2-9.2,6.3-15.1,6.3s-10.9-2.1-15.1-6.3C243,619.3,241,615.4,240.3,611z M369.9,709.4H255.7V704h114.2V709.4z M291.9,559.9
		v-4.1h46.3L298.8,624h39.4v4.1h-46.3l39.3-68.1H291.9z M376.1,628.1h-4.1v-29.2l-24.8-43h4.6l22.2,38.5l22.2-38.5h4.6l-24.9,43
		V628.1z M407.4,746.3v1.9h-18.5c0.6-4.4,2-7.5,4.2-9.3c2.2-1.8,4.1-3.3,5.7-4.7c1.7-1.4,3.2-2.9,4.6-4.6c1.4-1.7,2.1-3.7,2.1-5.9
		c0-2.3-0.7-4.2-2.2-5.8c-1.5-1.6-3.2-2.4-5.3-2.4c-2.1,0-3.8,0.8-5.3,2.4c-1.3,1.4-2,3-2.2,4.9l-1.8-0.7c0.3-2.1,1.2-4,2.6-5.6
		c1.8-2,4-3,6.6-3c2.6,0,4.8,1,6.6,3c1.8,2,2.7,4.4,2.7,7.3c0,2.8-0.9,5.3-2.7,7.4c-1.2,1.4-2.7,2.8-4.3,4.2
		c-1.7,1.4-3.5,2.9-5.6,4.6s-3.4,3.8-3.9,6.4H407.4z M433.4,737c0,3.2-1.1,6-3.2,8.3c-2.1,2.3-4.6,3.5-7.6,3.5c-3,0-5.5-1.2-7.6-3.5
		c-2.1-2.3-3.2-5.1-3.2-8.3v-11.4c0-3.2,1.1-6,3.2-8.3c2.1-2.3,4.6-3.5,7.6-3.5c3,0,5.5,1.2,7.6,3.5c2.1,2.3,3.2,5.1,3.2,8.3V737z
		 M434.5,690.7c-3.1,3.4-6.9,5.2-11.4,5.2c-4.4,0-8.2-1.7-11.4-5.2c-3.1-3.4-4.7-7.6-4.7-12.5c0-4.9,1.6-9,4.7-12.5
		c3.1-3.4,6.9-5.2,11.4-5.2c4.4,0,8.2,1.7,11.4,5.2c3.1,3.4,4.7,7.6,4.7,12.5C439.3,683.1,437.7,687.3,434.5,690.7z M414.3,563.2
		v64.8h-4.1v-71.9l-0.2-0.3h4.6l27.1,46.9l27.1-46.9h4.6l-0.2,0.3v71.9h-4.1v-64.8l-27.5,47.6L414.3,563.2z M449,748.2h-1.8v-30.9
		h-1.9l2.4-3.4h1.2V748.2z M446.5,695.4h-0.1v0h-1.8v-34.3h1.8v0h0.1c5.2,0,9.2,1.6,12,4.7c3.1,3.4,4.7,7.6,4.7,12.4
		c0,4.9-1.6,9-4.7,12.4C455.7,693.9,451.7,695.4,446.5,695.4z M480.5,738.1h-3v10h-1.8v-10h-12.9l12.9-24.3h1.8v22.3h3V738.1z
		 M600.9,709.4H492.1V704h108.8V709.4z M485.9,591.9c0-10.2,3.6-19,10.9-26.2c7.2-7.2,16-10.9,26.2-10.9c10.2,0,19,3.6,26.2,10.9
		c7.2,7.2,10.9,16,10.9,26.2s-3.6,19-10.9,26.2c-7.2,7.2-16,10.9-26.2,10.9c-10.2,0-19-3.6-26.2-10.9
		C489.5,610.8,485.9,602.1,485.9,591.9z M618,628.1H614l-37.5-64.8v64.8h-4.1v-72.2h4.5l37.1,64.2v-64.2h4.1V628.1z M494.8,467.6
		c-10.5-11.1-20.8-21.8-31-32.6c-2.3,1.7-4,3.1-6,4.6c-1.9-1.7-3.4-3.3-5.1-4.8c-4.7-4-7.6-3.5-11.5,0.3
		c10.1,9.1,20.3,18.2,30.3,27.4c5.7,5.2,11.2,10.8,15.9,17c2.6,3.5,4.3,8.4,4.6,12.8c0.4,4.4-3,7.7-7.5,8.8
		c-5.4,1.4-10.7-0.4-12.9-4.9c-7-14.3-21.1-20.8-32.1-30.6c-4.9-4.4-9.7-9-14.3-13.7c-4.6,4.7-9.4,9.3-14.3,13.7
		c-11,9.9-25.1,16.3-32.1,30.6c-2.2,4.5-7.5,6.3-12.9,4.9c-4.5-1.2-7.8-4.5-7.5-8.8c0.4-4.4,2-9.3,4.6-12.8
		c4.6-6.2,10.2-11.8,15.9-17c10-9.2,20.2-18.3,30.3-27.4c-3.9-3.9-6.8-4.4-11.5-0.3c-1.7,1.5-3.3,3-5.1,4.8c-2-1.5-3.7-2.9-6-4.6
		c-10.2,10.7-20.5,21.5-31,32.6C304,429.5,258.3,386,215.1,338.5c5.8-4.6,10.9-9.1,16.4-13c16.5-12,32.8-24.3,49.8-35.6
		c15.1-10,17.5-9.4,28,5.2c28.8,40.3,62.4,76.2,98.6,109.7c5.7,5.3,11.5,10.6,17.3,15.8c5.8-5.3,11.6-10.5,17.3-15.8
		c36.2-33.6,69.8-69.5,98.6-109.7c10.4-14.6,12.9-15.3,28-5.2c17,11.3,33.3,23.6,49.8,35.6c5.5,4,10.6,8.4,16.4,13
		C592.1,386,546.4,429.5,494.8,467.6z"/>
	<path fill="#141414" d="M299.2,294.6c-1.7-0.9-5-1.1-6.4,0c-1.2,1-0.7,4.1-1.1,8c3.6-1,6.4-1,7.5-2.3
		C300.3,299,300.1,295,299.2,294.6z"/>
	<path fill="#141414" d="M551.1,294.6c-0.9,0.5-1,4.5-0.1,5.7c1.1,1.3,3.9,1.3,7.5,2.3c-0.4-3.9,0.1-7-1.1-8
		C556.2,293.4,552.9,293.6,551.1,294.6z"/>
</g>
</svg>
